# xmcd
#
# Track frame offsets:
#	150
#	12545
#	26906
#	44459
#	63062
#	78085
#	96388
#	111623
#	130285
#	150054
#
# Disc length: 2194 seconds
#
# Revision: 1
# Processed by: cddbd v1.5.2PL0 Copyright (c) Steve Scherf et al.
# Submitted via: audiograbber 1.83.01
#
DISCID=7b08900a
DTITLE=Natalia Zukerman - Brand New Frame
DYEAR=2008
DGENRE=Folk
TTITLE0=Brand New Frame
TTITLE1=Favorite Shirt
TTITLE2=Song for Ramblin' Jack
TTITLE3=Bill
TTITLE4=Only Trees
TTITLE5=The Last Few Miles
TTITLE6=Early Bird
TTITLE7=Widow's Walk
TTITLE8=Good Boy
TTITLE9=Better Me
EXTD=
EXTT0=
EXTT1=
EXTT2=
EXTT3=
EXTT4=
EXTT5=
EXTT6=
EXTT7=
EXTT8=
EXTT9=
PLAYORDER=
